<svg width="26" height="26" viewBox="0 0 26 26" fill="none" xmlns="http://www.w3.org/2000/svg">
<path fill-rule="evenodd" clip-rule="evenodd" d="M9.17922 3.66667C9.47789 3.03733 10.1211 2.6 10.8667 2.6H15.1334C15.8779 2.6 16.5211 3.03733 16.8208 3.66667C17.5494 3.67307 18.1179 3.70613 18.6256 3.90453C19.2317 4.14162 19.7589 4.54455 20.1467 5.0672C20.5382 5.59307 20.7216 6.26933 20.9744 7.1984L21.0139 7.34347L21.6432 9.65493C22.0632 9.86605 22.4312 10.1677 22.7206 10.5381C23.384 11.3883 23.5014 12.4005 23.384 13.5611C23.2688 14.6875 22.9147 16.1061 22.471 17.8821L22.4422 17.9941C22.1616 19.1173 21.9334 20.0293 21.6635 20.7408C21.3798 21.4832 21.0214 22.0912 20.4294 22.5531C19.8384 23.0149 19.1611 23.2144 18.3728 23.3104C17.6166 23.4 16.6768 23.4 15.5195 23.4H10.4806C9.32322 23.4 8.38242 23.4 7.62722 23.3093C6.83789 23.2155 6.16162 23.0149 5.56962 22.552C4.97869 22.0912 4.62029 21.4832 4.33655 20.7408C4.06562 20.0293 3.83842 19.1173 3.55789 17.9941L3.52909 17.8821C3.08535 16.1061 2.73016 14.6875 2.61602 13.5621C2.49869 12.3995 2.61602 11.3883 3.27842 10.5381C3.58029 10.152 3.94189 9.86613 4.35575 9.65493L4.98509 7.34347L5.02562 7.1984C5.27842 6.26933 5.46189 5.59307 5.85335 5.06613C6.24133 4.54387 6.76844 4.14133 7.37442 3.90453C7.88215 3.70613 8.44962 3.672 9.17922 3.66667ZM9.18029 5.2688C8.47415 5.27627 8.19149 5.30293 7.95682 5.39467C7.63038 5.52233 7.34649 5.73932 7.13762 6.0208C6.94989 6.2736 6.83895 6.62667 6.52962 7.7648L6.15202 9.14827C7.25922 9 8.68855 9 10.4635 9H15.5355C17.3115 9 18.7408 9 19.847 9.14827L19.4704 7.7648C19.16 6.62667 19.0502 6.2736 18.8624 6.0208C18.6536 5.73932 18.3697 5.52233 18.0432 5.39467C17.8086 5.30293 17.5248 5.27627 16.8187 5.2688C16.6671 5.58737 16.4283 5.85646 16.13 6.04487C15.8317 6.23328 15.4862 6.3333 15.1334 6.33333H10.8667C10.5139 6.3333 10.1683 6.23328 9.87003 6.04487C9.57174 5.85646 9.33296 5.58737 9.18135 5.2688H9.18029ZM10.8667 4.2C10.796 4.2 10.7281 4.2281 10.6781 4.27811C10.6281 4.32812 10.6 4.39594 10.6 4.46667C10.6 4.53739 10.6281 4.60522 10.6781 4.65523C10.7281 4.70524 10.796 4.73333 10.8667 4.73333H15.1334C15.2041 4.73333 15.2719 4.70524 15.3219 4.65523C15.3719 4.60522 15.4 4.53739 15.4 4.46667C15.4 4.39594 15.3719 4.32812 15.3219 4.27811C15.2719 4.2281 15.2041 4.2 15.1334 4.2H10.8667ZM6.28002 10.7451C5.30935 10.8859 4.83895 11.1419 4.54136 11.5237C4.24269 11.9045 4.10935 12.4219 4.20855 13.3989C4.30989 14.3973 4.63522 15.7029 5.09815 17.5589C5.39469 18.7408 5.59949 19.56 5.83415 20.1723C6.05815 20.7632 6.27895 21.0757 6.55629 21.2923C6.83255 21.5077 7.18882 21.6453 7.81816 21.7211C8.46882 21.7989 9.31149 21.8 10.5318 21.8H15.4704C16.6896 21.8 17.5344 21.7989 18.184 21.7211C18.8134 21.6464 19.1696 21.5077 19.4459 21.2923C19.7232 21.0757 19.943 20.7632 20.1691 20.1723C20.4016 19.56 20.6075 18.7408 20.903 17.5589C21.367 15.7029 21.6923 14.3973 21.7926 13.3989C21.8928 12.4219 21.7584 11.9035 21.4608 11.5227C21.1632 11.1419 20.6928 10.8859 19.7211 10.7451C18.7291 10.6021 17.383 10.6 15.4704 10.6H10.5318C8.61922 10.6 7.27309 10.6021 6.28109 10.7451H6.28002Z" fill="#FF422E"/>
</svg>
